<svg xmlns="http://www.w3.org/2000/svg" viewBox="0 0 1440 320" preserveAspectRatio="none">
	<path fill="#007bff" fill-opacity="0.1"
				d="M0,96L48,112C96,128,192,160,288,160C384,160,480,128,576,112C672,96,768,96,864,112C960,128,1056,160,1152,160C1248,160,1344,128,1392,112L1440,96L1440,320L1392,320C1344,320,1248,320,1152,320C1056,320,960,320,864,320C768,320,672,320,576,320C480,320,384,320,288,320C192,320,96,320,48,320L0,320Z">
		<animate attributeName="d" dur="10s" repeatCount="indefinite"
						 values="
							 M0,96L48,112C96,128,192,160,288,160C384,160,480,128,576,112C672,96,768,96,864,112C960,128,1056,160,1152,160C1248,160,1344,128,1392,112L1440,96L1440,320L1392,320C1344,320,1248,320,1152,320C1056,320,960,320,864,320C768,320,672,320,576,320C480,320,384,320,288,320C192,320,96,320,48,320L0,320Z;
							 M0,160L48,144C96,128,192,96,288,96C384,96,480,128,576,144C672,160,768,160,864,144C960,128,1056,96,1152,96C1248,96,1344,128,1392,144L1440,160L1440,320L1392,320C1344,320,1248,320,1152,320C1056,320,960,320,864,320C768,320,672,320,576,320C480,320,384,320,288,320C192,320,96,320,48,320L0,320Z;
							 M0,96L48,112C96,128,192,160,288,160C384,160,480,128,576,112C672,96,768,96,864,112C960,128,1056,160,1152,160C1248,160,1344,128,1392,112L1440,96L1440,320L1392,320C1344,320,1248,320,1152,320C1056,320,960,320,864,320C768,320,672,320,576,320C480,320,384,320,288,320C192,320,96,320,48,320L0,320Z" />
	</path>
</svg>

